Coordinates
version=1
nRows=6
nColumns=36
inDegrees=yes

Units are S.I. units (second, meters, Newtons, ...)
If the header above contains a line with 'inDegrees', this indicates whether rotational values are in degrees (yes) or radians (no).

endheader
time	pelvis_tilt	pelvis_list	pelvis_rotation	pelvis_tx	pelvis_ty	pelvis_tz	hip_flexion_r	hip_adduction_r	hip_rotation_r	knee_angle_r	knee_angle_r_beta	ankle_angle_r	subtalar_angle_r	mtp_angle_r	hip_flexion_l	hip_adduction_l	hip_rotation_l	knee_angle_l	knee_angle_l_beta	ankle_angle_l	subtalar_angle_l	mtp_angle_l	lumbar_extension	lumbar_bending	lumbar_rotation	arm_flex_r	arm_add_r	arm_rot_r	elbow_flex_r	pro_sup_r	arm_flex_l	arm_add_l	arm_rot_l	elbow_flex_l	pro_sup_l
      1.07083330	    -16.62066069	     -0.73168640	      3.18604966	     -0.96485036	      1.20005354	     -0.10147199	     37.49294849	     -2.30310113	      3.31716507	     36.31754041	      0.63386066	      6.43798772	    -33.01775567	     -7.49999987	     36.48806227	      0.10750332	      7.97056003	     33.10461532	      0.57778453	     14.11086082	    -10.68434673	     -7.49999987	    -15.41099363	      0.41358700	     -4.23504583	     -0.66037877	    -12.40302343	     18.83134329	     17.05577403	     67.21124651	     -1.15052434	    -11.95049344	     28.08531632	     16.50519028	     60.30123314
      1.07500000	    -16.90735682	     -0.85431471	      3.58920821	     -0.96446780	      1.19891136	     -0.10231271	     38.16300997	     -2.40465307	      2.95978240	     37.20963877	      0.64943071	      7.06565543	    -33.00622503	     -7.49999987	     37.28810507	      0.05665205	      7.55289849	     33.87367927	      0.59120723	     14.93747276	     -9.67461073	     -7.49999987	    -15.19375618	      0.41198339	     -4.90561006	     -1.24868793	    -12.54900762	     25.01892845	     15.08874022	     65.89455293	     -1.93796952	    -11.78686884	     32.81737778	     14.39739351	     59.61736755
      1.07916670	    -16.92156997	     -1.08599023	      4.21641756	     -0.96439124	      1.19899985	     -0.10225391	     38.23134886	     -2.44741521	      2.78693330	     37.85019289	      0.66061049	      7.53871313	    -32.97585214	     -7.49999987	     37.70095326	     -0.00280680	      7.43660496	     34.46399202	      0.60151013	     15.45116329	     -8.77784625	     -7.49999987	    -15.31044820	      0.60071875	     -5.40124527	     -1.91403207	    -12.65215578	     29.33324919	     13.49142372	     62.99920135	     -2.55262911	    -11.68912191	     35.72676960	     12.76684917	     57.98200996
      1.08333330	    -17.05748394	     -1.25955915	      4.80099606	     -0.96401196	      1.19832495	     -0.10296926	     38.47031013	     -2.61537429	      2.59088035	     38.39336325	      0.67009060	      8.10137568	    -33.00710320	     -7.49999987	     38.16527714	      0.02737695	      7.23842180	     34.98747977	      0.61064672	     15.99293133	     -7.95497732	     -7.49999987	    -15.59016751	      0.79874720	     -5.82695564	     -2.90035006	    -12.25864518	     29.52978677	     12.44110826	     62.14973093	     -3.30417375	    -11.61670048	     35.70055284	     11.84036656	     57.41875900
      1.08750000	    -17.12255453	     -1.53947821	      5.32161245	     -0.96379358	      1.19823833	     -0.10304342	     38.47122975	     -2.64499504	      2.33872943	     38.55733159	      0.67295239	      8.39398390	    -33.01950793	     -7.49999987	     38.48049876	     -0.03248666	      7.30683291	     35.33523652	      0.61671622	     16.31963471	     -7.30769935	     -7.49999987	    -15.81240813	      1.13107427	     -6.27311470	     -3.10074021	    -12.46865346	     39.78796310	     10.96672322	     51.53897726	     -3.62845523	    -11.93004821	     41.96302552	     11.01720673	     51.39112650
      1.09166670	    -17.16359468	     -1.66616973	      5.58444648	     -0.96348329	      1.19747202	     -0.10378168	     38.45814129	     -2.73919130	      2.07978538	     38.75857790	      0.67646480	      8.54218775	    -33.08568500	     -7.49999987	     38.62857907	     -0.04911115	      7.25260286	     35.53962159	      0.62028341	     16.65874757	     -6.78389039	     -7.49999987	    -16.18732268	      1.35923412	     -6.34909217	     -3.93395578	    -12.40223905	     40.08978102	     10.31940718	     52.22526524	     -3.98734135	    -11.88115961	     41.95872317	     10.57236563	     51.98784019
